<?xml version="1.0" encoding="UTF-8"?><svg id="Layer_1" xmlns="http://www.w3.org/2000/svg" viewBox="0 0 612 385.17"><defs><style>.cls-1{fill:#f0f0ee;}</style></defs><path class="cls-1" d="M181.25,0c18.34,0,35.06,1.62,50.17,4.86,15.11,3.24,28.05,8.55,38.84,15.91,10.79,7.37,19.15,17.18,25.08,29.41,5.93,12.23,8.9,27.33,8.9,45.31,0,19.42-4.41,35.61-13.22,48.55-8.82,12.95-21.85,23.55-39.11,31.83,23.73,6.83,41.45,18.8,53.14,35.87,11.68,17.09,17.54,37.68,17.54,61.77,0,19.42-3.78,36.24-11.33,50.44-7.55,14.21-17.71,25.81-30.47,34.79-12.77,9-27.34,15.64-43.7,19.97-16.46,4.32-33.42,6.5-50.44,6.47H0V0h181.25ZM170.47,155.91c15.11,0,27.51-3.59,37.22-10.79,9.71-7.19,14.56-18.88,14.56-35.06,0-8.99-1.62-16.36-4.85-22.12-3.24-5.75-7.55-10.25-12.95-13.49-5.4-3.24-11.6-5.48-18.61-6.75-7.21-1.27-14.52-1.9-21.85-1.89h-79.3v90.09h85.77ZM175.32,319.35c8.27,0,16.18-.81,23.73-2.43,7.55-1.62,14.2-4.32,19.96-8.1,5.75-3.77,10.33-8.9,13.75-15.37,3.41-6.47,5.12-14.74,5.12-24.82,0-19.77-5.58-33.89-16.72-42.34-11.15-8.45-25.9-12.68-44.23-12.68h-92.24v105.73h90.63s0,0,0,0ZM429.18,311.26c11.51,11.16,28.05,16.72,49.63,16.72,15.46,0,28.77-3.86,39.91-11.6,11.15-7.72,17.98-15.91,20.5-24.55h67.43c-10.78,33.44-27.34,57.37-49.63,71.74-22.3,14.39-49.28,21.58-80.92,21.58-21.94,0-41.72-3.51-59.34-10.52-17.63-7.01-32.55-16.99-44.77-29.94-12.23-12.94-21.67-28.4-28.32-46.39-6.66-17.98-9.98-37.76-9.98-59.34s3.41-40.27,10.25-58.26c6.83-17.98,16.53-33.53,29.13-46.67,12.58-13.12,27.6-23.46,45.04-31.02,17.44-7.55,36.77-11.33,57.99-11.33,23.74,0,44.41,4.58,62.04,13.75,17.62,9.17,32.09,21.5,43.43,36.95,11.33,15.47,19.5,33.09,24.55,52.86,5.03,19.78,6.83,40.46,5.4,62.04h-201.22c1.07,24.81,7.36,42.8,18.87,53.94h0ZM515.76,164.53c-9.17-10.07-23.11-15.11-41.8-15.11-12.23,0-22.39,2.07-30.48,6.2-8.09,4.14-14.57,9.26-19.43,15.37-4.85,6.12-8.27,12.59-10.25,19.42-1.98,6.83-3.15,12.95-3.51,18.34h124.61c-3.59-19.42-9.98-34.16-19.15-44.23ZM397.22,19.56h155.69v43.17h-155.69V19.56Z"/></svg>