<?xml version="1.0" encoding="UTF-8"?><svg id="Layer_1" xmlns="http://www.w3.org/2000/svg" viewBox="0 0 499.98 500"><defs><style>.cls-1{fill:#f0f0ee;}</style></defs><path class="cls-1" d="M166.68,250c0-46.02,37.3-83.34,83.32-83.34s83.34,37.32,83.34,83.34-37.32,83.34-83.34,83.34-83.32-37.32-83.32-83.34M121.63,250c0,70.9,57.47,128.37,128.37,128.37s128.37-57.47,128.37-128.37-57.47-128.37-128.37-128.37-128.37,57.47-128.37,128.37M353.45,116.54c0,16.57,13.42,30.01,29.99,30.01,16.57,0,30.01-13.42,30.01-29.99,0-16.57-13.42-30.01-29.99-30.01h-.01c-16.56,0-29.99,13.43-30,29.99M149,453.49c-24.37-1.11-37.62-5.17-46.43-8.6-11.67-4.54-20-9.96-28.76-18.7-8.76-8.74-14.18-17.06-18.7-28.74-3.43-8.8-7.49-22.05-8.6-46.43-1.21-26.35-1.45-34.27-1.45-101.03s.26-74.66,1.45-101.03c1.11-24.37,5.2-37.6,8.6-46.43,4.54-11.67,9.96-20,18.7-28.76,8.74-8.76,17.06-14.18,28.76-18.7,8.8-3.43,22.05-7.49,46.43-8.6,26.35-1.21,34.27-1.45,101-1.45s74.66.26,101.03,1.45c24.37,1.11,37.6,5.2,46.43,8.6,11.67,4.52,20,9.96,28.76,18.7,8.76,8.74,14.16,17.08,18.7,28.76,3.43,8.8,7.49,22.05,8.6,46.43,1.21,26.37,1.45,34.27,1.45,101.03s-.24,74.66-1.45,101.03c-1.11,24.37-5.19,37.62-8.6,46.43-4.54,11.67-9.96,20-18.7,28.74s-17.08,14.16-28.76,18.7c-8.8,3.43-22.05,7.49-46.43,8.6-26.35,1.21-34.27,1.45-101.03,1.45s-74.66-.24-101-1.45M146.93,1.51c-26.61,1.21-44.8,5.43-60.68,11.61-16.45,6.38-30.37,14.94-44.29,28.84-13.91,13.89-22.45,27.84-28.84,44.29-6.18,15.89-10.4,34.07-11.61,60.68-1.23,26.66-1.51,35.18-1.51,103.07s.28,76.41,1.51,103.07c1.21,26.62,5.43,44.79,11.61,60.68,6.38,16.44,14.92,30.4,28.84,44.29,13.91,13.89,27.84,22.44,44.29,28.84,15.91,6.18,34.07,10.4,60.68,11.61,26.67,1.21,35.18,1.51,103.07,1.51s76.41-.28,103.07-1.51c26.62-1.21,44.79-5.43,60.68-11.61,16.44-6.4,30.37-14.94,44.29-28.84,13.91-13.89,22.44-27.85,28.84-44.29,6.18-15.89,10.42-34.07,11.61-60.68,1.21-26.68,1.49-35.18,1.49-103.07s-.28-76.41-1.49-103.07c-1.21-26.62-5.43-44.8-11.61-60.68-6.4-16.44-14.94-30.37-28.84-44.29-13.89-13.91-27.85-22.45-44.27-28.84-15.91-6.18-34.09-10.42-60.68-11.61-26.66-1.21-35.18-1.51-103.07-1.51s-76.42.28-103.09,1.51"/></svg>