<?xml version="1.0" encoding="UTF-8"?>
<svg id="Layer_1" data-name="Layer 1" xmlns="http://www.w3.org/2000/svg" viewBox="0 0 1000 425.34">
  <defs>
    <style>
      .cls-1 {
        fill: #fcecec;
      }
    </style>
  </defs>
  <path class="cls-1" d="M30.07,188.31H0V0h80.67c13.86,0,25.86,2.2,35.97,6.61,10.12,4.41,17.94,10.78,23.47,19.11,5.53,8.34,8.29,18.51,8.29,30.49,0,10.12-2.02,19.02-6.04,26.7-4.03,7.69-9.94,13.63-17.71,17.85-7.78,4.22-17.29,6.61-28.53,7.17v2.25c6.93,2.25,12.6,5.48,17,9.7,4.4,4.22,8.39,9.6,11.94,16.16l28.39,52.28h-35.42l-26.7-48.62c-2.81-5.43-5.81-9.98-8.99-13.63-3.19-3.65-7.12-6.28-11.8-7.87-4.69-1.59-10.78-2.39-18.27-2.39h-22.2v72.51h0ZM30.07,27.26v63.52h54.25c12.18,0,20.89-2.43,26.14-7.31,5.24-4.87,7.87-13.11,7.87-24.73s-2.63-19.06-7.87-24.03c-5.25-4.96-13.96-7.45-26.14-7.45,0,0-54.25,0-54.25,0Z"/>
  <path class="cls-1" d="M230.75,191.12c-14.24,0-26.56-3.04-36.96-9.14-10.4-6.09-18.46-14.62-24.17-25.58-5.72-10.96-8.57-23.65-8.57-38.08s2.85-27.07,8.57-37.94c5.71-10.86,13.77-19.35,24.17-25.44,10.4-6.09,22.72-9.13,36.96-9.13s26.46,3.05,36.68,9.13c10.21,6.09,18.13,14.57,23.75,25.44s8.43,23.52,8.43,37.94-2.81,27.12-8.43,38.08-13.54,19.49-23.75,25.58c-10.22,6.09-22.44,9.14-36.68,9.14h0ZM230.75,164.14c14.8,0,25.06-3.7,30.78-11.1,5.71-7.4,8.57-18.97,8.57-34.71s-2.86-27.31-8.57-34.71c-5.72-7.4-15.97-11.1-30.78-11.1s-25.11,3.7-30.91,11.1c-5.81,7.4-8.71,18.97-8.71,34.71s2.9,27.31,8.71,34.71c5.81,7.4,16.11,11.1,30.91,11.1Z"/>
  <path class="cls-1" d="M350.21,188.31h-27.83V0h30.36v151.49l-2.53,3.65v33.17ZM398.55,191.12c-12.18,0-22.2-2.3-30.07-6.89s-13.59-11-17.15-19.25h-5.62l1.68-34.01h5.34c0,7.69,1.45,14.1,4.35,19.25,2.9,5.16,7.21,8.95,12.93,11.38,5.71,2.44,12.6,3.66,20.66,3.66,6.75,0,12.51-.84,17.29-2.53s8.76-4.36,11.94-8.01c3.18-3.66,5.48-8.48,6.88-14.47s2.11-13.3,2.11-21.92-.7-15.92-2.11-21.92c-1.4-5.99-3.66-10.77-6.75-14.33s-7.03-6.18-11.8-7.87c-4.78-1.69-10.64-2.53-17.57-2.53-8.06,0-14.95,1.22-20.66,3.65-5.72,2.44-10.03,6.18-12.93,11.24-2.91,5.06-4.35,11.53-4.35,19.39h-5.34l-1.68-35.13h7.58c3.18-6.37,8.71-12.13,16.58-17.28,7.87-5.15,18.08-7.73,30.64-7.73,19.11,0,33.63,6.56,43.57,19.67,9.93,13.12,14.89,30.73,14.89,52.84s-5.16,39.77-15.46,52.98c-10.31,13.21-25.3,19.81-44.97,19.81h.02Z"/>
  <path class="cls-1" d="M510.41,30.92h-30.07l-.28-30.92h30.36v30.92h0ZM510.69,188.31h-30.35V47.78h30.35v140.53Z"/>
  <path class="cls-1" d="M568.87,188.31h-30.35V48.63h27.82v41.88l2.53,1.4v96.4h0ZM668.65,188.31h-30.07v-80.94c0-12.55-2.39-21.55-7.17-26.98-4.78-5.43-13.63-8.15-26.56-8.15-8.06,0-14.75,1.12-20.1,3.37-5.34,2.25-9.32,5.95-11.94,11.1-2.63,5.16-3.93,12.13-3.93,20.94h-5.34l-2.53-32.88h6.74c2.06-5.06,5.15-9.74,9.28-14.05,4.12-4.31,9.41-7.87,15.88-10.68,6.46-2.81,14.1-4.22,22.91-4.22,12.37,0,22.39,2.34,30.07,7.03,7.68,4.68,13.39,11.15,17.14,19.39,3.75,8.25,5.62,17.71,5.62,28.39v87.69h0Z"/>
  <path class="cls-1" d="M89.94,422.53H0v-188.31h86.57c12.18,0,22.67,1.69,31.48,5.06,8.81,3.37,15.55,8.53,20.24,15.46,4.68,6.93,7.03,15.74,7.03,26.42s-3.05,19.87-9.14,26.98c-6.09,7.12-15.32,11.62-27.69,13.49v2.25c14.62,1.69,25.58,6.84,32.89,15.46s10.96,19.11,10.96,31.48c0,10.68-2.49,19.86-7.45,27.54-4.97,7.69-12.09,13.63-21.36,17.85s-20.47,6.32-33.59,6.32h0ZM30.07,261.48v50.59h53.68c11.24,0,19.3-1.83,24.17-5.48,4.87-3.65,7.31-10.26,7.31-19.81s-2.3-15.92-6.89-19.68c-4.59-3.74-12.51-5.62-23.75-5.62H30.07ZM30.07,337.65v57.34h58.74c11.43,0,19.77-1.97,25.02-5.9,5.24-3.93,7.87-11.52,7.87-22.77s-2.67-18.59-8.01-22.63c-5.34-4.03-13.63-6.04-24.88-6.04H30.07Z"/>
  <path class="cls-1" d="M204.62,265.13h-30.08l-.28-30.92h30.36v30.92ZM204.89,422.53h-30.36v-140.53h30.36v140.53Z"/>
  <path class="cls-1" d="M263.07,422.53h-30.35v-188.31h30.35v188.31Z"/>
  <path class="cls-1" d="M324.34,422.53h-30.35v-188.31h30.35v188.31Z"/>
  <path class="cls-1" d="M391.23,425.34c-12.74,0-23.33-3.18-31.76-9.56-8.43-6.37-12.65-15.64-12.65-27.82,0-7.68,1.78-14.19,5.34-19.53,3.55-5.34,8.85-9.65,15.88-12.93s15.41-5.67,25.16-7.17l51.72-7.31v21.64l-47.22,6.46c-8.06,1.31-13.68,3.09-16.86,5.34-3.19,2.25-4.78,6-4.78,11.24s1.92,9.41,5.76,11.94,10.16,3.79,18.97,3.79c6.74,0,13.3-1.08,19.68-3.23,6.37-2.15,11.56-5.85,15.6-11.1,4.03-5.24,6.04-12.55,6.04-21.92l3.94,35.7-4.22-.28c-2.63,4.31-6.28,8.34-10.96,12.09s-10.31,6.79-16.87,9.14c-6.56,2.34-14.15,3.51-22.76,3.51h-.01ZM471.05,422.53h-28.11v-27.54l-.85-7.59v-53.68c0-10.49-2.48-17.61-7.45-21.36-4.96-3.75-12.97-5.62-24.03-5.62s-18.97,1.92-23.75,5.76-7.17,10.45-7.17,19.82v4.22h-29.23v-2.81c0-10.3,2.58-19.53,7.73-27.69,5.15-8.15,12.37-14.52,21.64-19.11,9.27-4.59,20.09-6.88,32.46-6.88s23.75,2.44,32.46,7.31,15.27,11.57,19.68,20.1c4.4,8.53,6.61,18.6,6.61,30.21v84.88-.02Z"/>
  <path class="cls-1" d="M551.99,425.34c-11.99,0-21.92-2.49-29.79-7.45-7.87-4.96-13.63-11.71-17.28-20.24-3.66-8.52-5.48-18.03-5.48-28.53v-86.29h30.07v80.66c0,12.74,2.62,21.88,7.87,27.4,5.24,5.53,13.96,8.29,26.14,8.29,7.68,0,14.24-1.26,19.68-3.79,5.43-2.53,9.6-6.56,12.51-12.09,2.9-5.52,4.35-12.79,4.35-21.78h7.59v33.17h-6.74c-2.07,5.25-5.2,10.22-9.42,14.9-4.21,4.68-9.56,8.48-16.02,11.38s-14.29,4.36-23.47,4.36h-.01ZM630.13,422.53h-28.11v-42.16l-1.97-1.4v-96.12h30.07v139.69h0Z"/>
  <path class="cls-1" d="M715.29,425.34c-19.86,0-35.09-6.61-45.67-19.81-10.59-13.21-15.88-30.87-15.88-52.98s5.15-39.72,15.46-52.84c10.3-13.11,25.11-19.67,44.41-19.67,12.37,0,22.35,2.49,29.94,7.45,7.59,4.97,12.88,10.64,15.88,17h7.59l-1.4,35.7h-5.34c0-7.87-1.51-14.33-4.5-19.39-3-5.06-7.31-8.8-12.93-11.24-5.62-2.43-12.55-3.65-20.8-3.65-6.56,0-12.28.84-17.15,2.53-4.88,1.69-8.86,4.31-11.94,7.87-3.09,3.56-5.34,8.34-6.75,14.33-1.4,6-2.11,13.31-2.11,21.92s.7,15.93,2.11,21.92c1.4,6,3.66,10.82,6.75,14.47s7.07,6.32,11.94,8.01,10.58,2.53,17.15,2.53c8.24,0,15.17-1.22,20.8-3.66,5.62-2.43,9.93-6.23,12.93-11.38s4.5-11.57,4.5-19.25h5.34l1.4,34.01h-5.62c-3.19,8.25-8.67,14.66-16.44,19.25-7.78,4.59-17.66,6.89-29.65,6.89h-.02ZM790.33,422.53h-27.55v-33.17l-2.53-3.65v-151.49h30.07v188.31h.01Z"/>
  <path class="cls-1" d="M881.4,425.34c-15.37,0-28.01-3.09-37.95-9.27-9.93-6.18-17.38-14.71-22.34-25.58-4.97-10.86-7.45-23.51-7.45-37.94s2.76-27.07,8.29-37.94c5.53-10.86,13.35-19.35,23.47-25.44s22.11-9.13,35.98-9.13c12.55,0,23.61,2.39,33.17,7.17s17.04,11.67,22.48,20.66c5.43,8.99,8.15,19.95,8.15,32.88,0,3.56-.14,7.07-.42,10.54-.28,3.47-.61,6.32-.99,8.57h-115.8v-20.52h91.07l-3.09,2.81c.93-8.62.14-15.6-2.39-20.94s-6.61-9.32-12.23-11.95c-5.62-2.62-12.56-3.93-20.8-3.93-14.8,0-24.92,3.75-30.35,11.24-5.44,7.5-8.15,17.71-8.15,30.64v8.15c0,9.37,1.13,17.28,3.37,23.75,2.25,6.46,6.33,11.29,12.23,14.47,5.9,3.19,13.91,4.78,24.03,4.78,11.81,0,20.14-1.87,25.01-5.62s7.31-8.71,7.31-14.9v-2.25h30.07v2.53c0,9.56-2.63,17.85-7.87,24.87-5.25,7.03-12.51,12.51-21.78,16.44-9.28,3.94-20.28,5.9-33.02,5.9h0Z"/>
  <path class="cls-1" d="M1000,422.53h-30.35v-188.31h30.35v188.31Z"/>
</svg>